<svg height="413" version="1.1" width="479.03125" xmlns="http://www.w3.org/2000/svg" xmlns:xlink="http://www.w3.org/1999/xlink" style="overflow: hidden; position: relative;" viewBox="0 0 479.03125 413" preserveAspectRatio="xMidYMid meet"><desc style="-webkit-tap-highlight-color: rgba(0, 0, 0, 0);">Created with Raphaël 2.1.4</desc><defs style="-webkit-tap-highlight-color: rgba(0, 0, 0, 0);"><path stroke-linecap="round" d="M5,0 0,2.5 5,5z" id="raphael-marker-block" style="-webkit-tap-highlight-color: rgba(0, 0, 0, 0);"></path><marker id="raphael-marker-endblock33-obj10" markerHeight="3" markerWidth="3" orient="auto" refX="1.5" refY="1.5" style="-webkit-tap-highlight-color: rgba(0, 0, 0, 0);"><use xlink:href="#raphael-marker-block" transform="rotate(180 1.5 1.5) scale(0.6,0.6)" stroke-width="1.6667" fill="black" stroke="none" style="-webkit-tap-highlight-color: rgba(0, 0, 0, 0);"></use></marker><marker id="raphael-marker-endblock33-obj11" markerHeight="3" markerWidth="3" orient="auto" refX="1.5" refY="1.5" style="-webkit-tap-highlight-color: rgba(0, 0, 0, 0);"><use xlink:href="#raphael-marker-block" transform="rotate(180 1.5 1.5) scale(0.6,0.6)" stroke-width="1.6667" fill="black" stroke="none" style="-webkit-tap-highlight-color: rgba(0, 0, 0, 0);"></use></marker><marker id="raphael-marker-endblock33-obj12" markerHeight="3" markerWidth="3" orient="auto" refX="1.5" refY="1.5" style="-webkit-tap-highlight-color: rgba(0, 0, 0, 0);"><use xlink:href="#raphael-marker-block" transform="rotate(180 1.5 1.5) scale(0.6,0.6)" stroke-width="1.6667" fill="black" stroke="none" style="-webkit-tap-highlight-color: rgba(0, 0, 0, 0);"></use></marker><marker id="raphael-marker-endblock33-obj13" markerHeight="3" markerWidth="3" orient="auto" refX="1.5" refY="1.5" style="-webkit-tap-highlight-color: rgba(0, 0, 0, 0);"><use xlink:href="#raphael-marker-block" transform="rotate(180 1.5 1.5) scale(0.6,0.6)" stroke-width="1.6667" fill="black" stroke="none" style="-webkit-tap-highlight-color: rgba(0, 0, 0, 0);"></use></marker></defs><rect x="0" y="0" width="133.625" height="36" rx="20" ry="20" fill="#ffffff" stroke="#000000" style="-webkit-tap-highlight-color: rgba(0, 0, 0, 0);" stroke-width="3" class="flowchart" id="st4349919632" transform="matrix(1,0,0,1,174.2031,6)"></rect><text x="10" y="18" text-anchor="start" font-family="&quot;Arial&quot;" font-size="14px" stroke="none" fill="#000000" style="-webkit-tap-highlight-color: rgba(0, 0, 0, 0); text-anchor: start; font-family: Arial; font-size: 14px;" id="st4349919632t" class="flowchartt" transform="matrix(1,0,0,1,174.2031,6)" stroke-width="1"><tspan dy="5" style="-webkit-tap-highlight-color: rgba(0, 0, 0, 0);">BEGIN negate_op</tspan></text><rect x="0" y="0" width="470.03125" height="36" rx="0" ry="0" fill="#ffffff" stroke="#000000" style="-webkit-tap-highlight-color: rgba(0, 0, 0, 0);" stroke-width="3" class="flowchart" id="op4349919728" transform="matrix(1,0,0,1,6,98)"></rect><text x="10" y="18" text-anchor="start" font-family="&quot;Arial&quot;" font-size="14px" stroke="none" fill="#000000" style="-webkit-tap-highlight-color: rgba(0, 0, 0, 0); text-anchor: start; font-family: Arial; font-size: 14px;" id="op4349919728t" class="flowchartt" transform="matrix(1,0,0,1,6,98)" stroke-width="1"><tspan dy="5" style="-webkit-tap-highlight-color: rgba(0, 0, 0, 0);">new_str = concatenate "-", expr_str but wrapped in parens if not grouped</tspan></text><rect x="0" y="0" width="176.03125" height="36" rx="0" ry="0" fill="#ffffff" stroke="#000000" style="-webkit-tap-highlight-color: rgba(0, 0, 0, 0);" stroke-width="3" class="flowchart" id="op4349919824" transform="matrix(1,0,0,1,153,190)"></rect><text x="10" y="18" text-anchor="start" font-family="&quot;Arial&quot;" font-size="14px" stroke="none" fill="#000000" style="-webkit-tap-highlight-color: rgba(0, 0, 0, 0); text-anchor: start; font-family: Arial; font-size: 14px;" id="op4349919824t" class="flowchartt" transform="matrix(1,0,0,1,153,190)" stroke-width="1"><tspan dy="5" style="-webkit-tap-highlight-color: rgba(0, 0, 0, 0);">new_value = -expr_value</tspan></text><path fill="#ffffff" stroke="#000000" d="M10,18L0,36L267.1875,36L287.1875,0L20,0L10,18" stroke-width="3" id="io4349919920" class="flowchart" style="-webkit-tap-highlight-color: rgba(0, 0, 0, 0);" transform="matrix(1,0,0,1,97.4219,282)"></path><text x="30" y="18" text-anchor="start" font-family="&quot;Arial&quot;" font-size="14px" stroke="none" fill="#000000" style="-webkit-tap-highlight-color: rgba(0, 0, 0, 0); text-anchor: start; font-family: Arial; font-size: 14px;" id="io4349919920t" class="flowchartt" transform="matrix(1,0,0,1,97.4219,282)" stroke-width="1"><tspan dy="5" style="-webkit-tap-highlight-color: rgba(0, 0, 0, 0);">RETURN new_str, new_value, False</tspan></text><rect x="0" y="0" width="119.625" height="36" rx="20" ry="20" fill="#ffffff" stroke="#000000" style="-webkit-tap-highlight-color: rgba(0, 0, 0, 0);" stroke-width="3" class="flowchart" id="e4349920016" transform="matrix(1,0,0,1,181.2031,374)"></rect><text x="10" y="18" text-anchor="start" font-family="&quot;Arial&quot;" font-size="14px" stroke="none" fill="#000000" style="-webkit-tap-highlight-color: rgba(0, 0, 0, 0); text-anchor: start; font-family: Arial; font-size: 14px;" id="e4349920016t" class="flowchartt" transform="matrix(1,0,0,1,181.2031,374)" stroke-width="1"><tspan dy="5" style="-webkit-tap-highlight-color: rgba(0, 0, 0, 0);">END negate_op</tspan><tspan dy="16.8" x="10" style="-webkit-tap-highlight-color: rgba(0, 0, 0, 0);"></tspan></text><path fill="none" stroke="#000000" d="M241.015625,42C241.015625,42,241.015625,80.20077085494995,241.015625,93.50016031763516" stroke-width="3" marker-end="url(#raphael-marker-endblock33-obj10)" style="-webkit-tap-highlight-color: rgba(0, 0, 0, 0);"></path><path fill="none" stroke="#000000" d="M241.015625,134C241.015625,134,241.015625,172.20077085494995,241.015625,185.50016031763516" stroke-width="3" marker-end="url(#raphael-marker-endblock33-obj11)" style="-webkit-tap-highlight-color: rgba(0, 0, 0, 0);"></path><path fill="none" stroke="#000000" d="M241.015625,226C241.015625,226,241.015625,264.20077085494995,241.015625,277.50016031763516" stroke-width="3" marker-end="url(#raphael-marker-endblock33-obj12)" style="-webkit-tap-highlight-color: rgba(0, 0, 0, 0);"></path><path fill="none" stroke="#000000" d="M241.015625,318C241.015625,318,241.015625,356.20077085494995,241.015625,369.50016031763516" stroke-width="3" marker-end="url(#raphael-marker-endblock33-obj13)" style="-webkit-tap-highlight-color: rgba(0, 0, 0, 0);"></path></svg>